<?xml version="1.0" encoding="utf-8" ?>
<svg xmlns="http://www.w3.org/2000/svg" xmlns:xlink="http://www.w3.org/1999/xlink" width="172" height="48">
	<defs>
		<clipPath id="clip_0">
			<rect x="-1140" y="-84" width="1440" height="1024" clip-rule="evenodd"/>
		</clipPath>
	</defs>
	<g clip-path="url(#clip_0)">
		<path fill="rgb(0,0,0)" stroke="none" transform="translate(0.119141 0.76001)" d="M18.12 20.36C18.12 22.7867 17.26 24.7933 15.54 26.38C13.82 27.9667 11.6267 28.76 8.96 28.76C7.33333 28.76 5.09335 28.2133 2.24 27.12C2.02667 27.04 1.84 27 1.68 27C1.22666 27 0.880001 27.48 0.64 28.44C0.56 28.7333 0.453334 28.88 0.32 28.88C0.106666 28.88 0 28.6933 0 28.32C0 27.9733 0.066666 27.36 0.2 26.48C0.306667 25.76 0.36 24.92 0.36 23.96C0.36 23.1867 0.346667 22.5733 0.32 22.12C0.266666 21.2133 0.24 20.68 0.24 20.52C0.24 20.0933 0.373332 19.88 0.64 19.88C0.906668 19.88 1.14667 20.4533 1.36 21.6C1.73334 23.5733 2.57333 25.1067 3.88 26.2C5.29334 27.3733 6.81333 27.96 8.44 27.96C9.88001 27.96 11.0933 27.5067 12.08 26.6C13.0667 25.6933 13.56 24.5867 13.56 23.28C13.56 22.16 13.24 21.2667 12.6 20.6C12.12 20.12 10.5733 19.1733 7.96 17.76C5.05332 16.2133 3.08001 14.6667 2.04 13.12C1.08 11.7067 0.6 10.0267 0.6 8.08C0.6 5.78665 1.41333 3.88667 3.04 2.38C4.66668 0.873326 6.71999 0.12 9.2 0.12C10.5333 0.12 11.96 0.439997 13.48 1.08C13.9867 1.29333 14.3467 1.4 14.56 1.4C14.96 1.4 15.2267 1.05334 15.36 0.36C15.4133 0.119999 15.5333 0 15.72 0C15.9867 0 16.12 0.173332 16.12 0.52C16.12 0.653334 16.0933 1.02666 16.04 1.64C15.9867 2.25334 15.96 2.76 15.96 3.16C15.96 4.54667 16.0133 5.72 16.12 6.68C16.1467 6.76 16.16 6.86667 16.16 7C16.16 7.24 16.0533 7.36 15.84 7.36C15.6 7.36 15.36 6.93334 15.12 6.08C14.88 5.22666 14.46 4.38 13.86 3.54C13.26 2.7 12.6533 2.09334 12.04 1.72C11.24 1.24 10.3067 1 9.24 1C7.74666 1 6.56001 1.36 5.68 2.08C4.8 2.8 4.36 3.78666 4.36 5.04C4.36 6.13334 4.77333 7.1 5.6 7.94C6.42667 8.78 8.01332 9.85333 10.36 11.16C13.24 12.76 15.1467 14.04 16.08 15C17.44 16.4133 18.12 18.2 18.12 20.36ZM113.64 28.12C113.64 28.28 113.52 28.36 113.28 28.36L112.48 28.36C111.92 28.3333 111.453 28.32 111.08 28.32L110.08 28.32C107.787 28.32 106.373 28.2933 105.84 28.24L105.2 28.24L104.24 28.28C103.893 28.3067 103.72 28.2133 103.72 28Q103.72 27.76 103.92 27.76L104.84 27.8C105.427 27.8267 105.76 27.6667 105.84 27.32C105.893 27.1067 105.92 25.7733 105.92 23.32L105.92 17.36C105.92 14.88 105.8 13.4133 105.56 12.96C105.213 12.2667 104.547 11.92 103.56 11.92C102.52 11.92 101.72 12.3867 101.16 13.32C100.893 13.7733 100.76 14.7467 100.76 16.24L100.76 22.52C100.76 24.4667 100.773 25.5333 100.8 25.72L100.8 26.2L100.76 27.16C100.733 27.56 101.293 27.76 102.44 27.76C102.68 27.76 102.8 27.84 102.8 28C102.8 28.1867 102.627 28.28 102.28 28.28L101.96 28.28Q101.64 28.24 101 28.24L99.24 28.24L97 28.28L94.64 28.36L93.44 28.36C93.04 28.36 92.84 28.28 92.84 28.12C92.84 28.04 92.8667 27.9867 92.92 27.96C92.9733 27.9333 93.0933 27.92 93.28 27.92C94.2933 27.92 94.8933 27.88 95.08 27.8C95.2667 27.72 95.3867 27.4133 95.44 26.88C95.4667 26.56 95.48 24.96 95.48 22.08L95.48 7.4C95.48 4.51999 95.42 2.86 95.3 2.42C95.18 1.98 94.6133 1.76 93.6 1.76C92.8267 1.76 92.44 1.68 92.44 1.52C92.44 1.36 92.8933 1.25333 93.8 1.2C95.8533 1.06667 97.7867 0.720003 99.6 0.16C99.9467 0.0533328 100.2 0 100.36 0C100.573 0 100.68 0.746659 100.68 2.24L100.68 5.16C100.653 6.01334 100.64 6.6 100.64 6.92L100.64 13.28C101.413 12.1867 102.167 11.44 102.9 11.04C103.633 10.64 104.627 10.44 105.88 10.44C108.52 10.44 110.173 11.5067 110.84 13.64C111.08 14.3333 111.2 15.4533 111.2 17L111.2 26.32C111.2 27.0133 111.313 27.44 111.54 27.6C111.767 27.76 112.333 27.84 113.24 27.84C113.507 27.84 113.64 27.9333 113.64 28.12ZM35.28 1.88L34.92 2.2L33.36 3.6L28.96 7.52C28.4533 8 28.1333 8.24 28 8.24Q27.84 8.24 27.84 8.08C27.84 8 28.2667 6.89334 29.12 4.76L29.16 4.64C29.4533 3.89333 29.8 2.97334 30.2 1.88L35.28 1.88ZM74.6 1.88L74.24 2.2L72.68 3.6L68.28 7.52C67.7733 8 67.4533 8.24 67.32 8.24C67.2133 8.24 67.16 8.18667 67.16 8.08C67.16 8 67.5867 6.89334 68.44 4.76L68.48 4.64C68.7733 3.89333 69.12 2.97334 69.52 1.88L74.6 1.88ZM57.48 28.32C58.1467 28.32 58.48 28.2133 58.48 28C58.48 27.7867 58.1133 27.68 57.38 27.68C56.6467 27.68 56.2133 27.6067 56.08 27.46C55.9467 27.3133 55.88 26.8267 55.88 26L55.88 20.2C55.88 17.6133 55.8467 15.9067 55.78 15.08C55.7133 14.2533 55.5333 13.5067 55.24 12.84C54.5467 11.24 53.0533 10.44 50.76 10.44C48.5467 10.44 46.7333 11.36 45.32 13.2C45.3467 12.8533 45.36 12.0933 45.36 10.92C45.36 10.4933 45.2533 10.28 45.04 10.28C44.96 10.28 44.8133 10.3333 44.6 10.44C42.8133 11.56 40.4267 12.1867 37.44 12.32Q36.96 12.36 36.96 12.64C36.96 12.8267 37.1733 12.92 37.6 12.92L38.04 12.92C38.3067 12.8933 38.6133 12.88 38.96 12.88C39.6 12.88 39.96 13.08 40.04 13.48C40.0933 13.5867 40.12 14.9333 40.12 17.52L40.12 26.72L40 27.28C39.8667 27.6 39.3933 27.76 38.58 27.76C37.7667 27.76 37.36 27.8667 37.36 28.08C37.36 28.2667 37.52 28.36 37.84 28.36C39.36 28.36 40.8533 28.3333 42.32 28.28C43.0667 28.2533 44.0133 28.24 45.16 28.24C46.3067 28.24 46.9733 28.2267 47.16 28.2C47.3467 28.1733 47.44 28.08 47.44 27.92C47.44 27.76 47.3333 27.68 47.12 27.68C46.4267 27.6533 45.9933 27.5933 45.82 27.5C45.6467 27.4067 45.5333 27.2 45.48 26.88L45.44 14.76C45.44 13.9867 45.7067 13.3467 46.24 12.84C46.7733 12.3333 47.4533 12.08 48.28 12.08C49.1067 12.08 49.68 12.32 50 12.8C50.3733 13.36 50.56 15.0667 50.56 17.92L50.56 25.64C50.56 26.6533 50.5 27.2467 50.38 27.42C50.26 27.5933 49.8533 27.68 49.16 27.68L48.84 27.68C48.52 27.68 48.36 27.7733 48.36 27.96C48.36 28.1733 48.5467 28.28 48.92 28.28L52.36 28.24L53.64 28.24C54.8667 28.24 55.8 28.2533 56.44 28.28C57.08 28.3067 57.4267 28.32 57.48 28.32ZM91.72 16.12C92.0933 15.72 92.28 15.2 92.28 14.56C92.28 13.4133 91.7 12.44 90.54 11.64C89.38 10.84 87.96 10.44 86.28 10.44C83.6667 10.44 81.4667 11.3533 79.68 13.18C77.8933 15.0067 77 17.2533 77 19.92C77 22.3733 77.8467 24.46 79.54 26.18C81.2333 27.9 83.28 28.76 85.68 28.76C87.6267 28.76 89.2933 28.1067 90.68 26.8C91.64 25.8933 92.12 25.1867 92.12 24.68C92.12 24.52 92.0667 24.44 91.96 24.44Q91.76 24.44 91.52 24.76C90.2133 26.3867 88.9333 27.2 87.68 27.2C86.48 27.2 85.4667 26.6933 84.64 25.68C83.5733 24.3467 83.04 22.1333 83.04 19.04C83.04 13.6266 84.2533 10.92 86.68 10.92C87.24 10.92 87.7133 11.1 88.1 11.46C88.4867 11.82 88.68 12.2533 88.68 12.76C88.68 12.9467 88.5933 13.26 88.42 13.7C88.2467 14.14 88.16 14.52 88.16 14.84C88.16 16.0933 88.8667 16.72 90.28 16.72C90.8667 16.72 91.3467 16.52 91.72 16.12ZM149.28 27C149.707 26.6267 149.92 26.3333 149.92 26.12C149.92 25.9867 149.853 25.92 149.72 25.92C149.64 25.92 149.533 25.9867 149.4 26.12C148.733 26.76 148.173 27.08 147.72 27.08C147.08 27.08 146.693 26.52 146.56 25.4C146.533 25.1867 146.52 24.4133 146.52 23.08L146.52 16.24C146.52 14.1867 146.08 12.7467 145.2 11.92C144.107 10.9333 142.173 10.44 139.4 10.44C137.533 10.44 136.027 10.9067 134.88 11.84C133.733 12.7733 133.16 13.8133 133.16 14.96C133.16 15.68 133.407 16.2733 133.9 16.74C134.393 17.2067 135.027 17.44 135.8 17.44C136.413 17.44 136.913 17.2467 137.3 16.86C137.687 16.4733 137.88 15.9867 137.88 15.4C137.88 14.3067 137.4 13.72 136.44 13.64C135.8 13.5867 135.48 13.4267 135.48 13.16C135.48 12.68 135.747 12.1867 136.28 11.68C136.813 11.1733 137.52 10.92 138.4 10.92C139.92 10.92 140.867 11.5867 141.24 12.92L141.28 13.12C141.467 13.7333 141.56 15.3733 141.56 18.04L141.56 18.88C135.8 19.4933 132.92 21.48 132.92 24.84C132.92 25.9867 133.273 26.92 133.98 27.64C134.687 28.36 135.613 28.72 136.76 28.72C138.84 28.72 140.48 27.6267 141.68 25.44C141.84 26.6133 142.167 27.4267 142.66 27.88C143.153 28.3333 143.947 28.56 145.04 28.56C146.72 28.56 148.133 28.04 149.28 27ZM35.16 25.68C35.8533 24.72 36.2 23.9467 36.2 23.36Q36.2 23.12 36.04 23.12C35.9067 23.12 35.7333 23.3733 35.52 23.88C35.0667 24.8933 34.4067 25.72 33.54 26.36C32.6733 27 31.7733 27.32 30.84 27.32C29.72 27.32 28.7733 26.9333 28 26.16C26.6933 24.8533 26.04 22.64 26.04 19.52C26.04 18.8533 26.08 18.04 26.16 17.08C27.1733 17.0267 28.0133 17 28.68 17C33 16.9733 35.4667 16.9333 36.08 16.88C36.0267 16.2133 35.9467 15.64 35.84 15.16C35.44 13.6133 34.5733 12.4267 33.24 11.6C32.04 10.8533 30.5867 10.48 28.88 10.48C26.3733 10.48 24.28 11.3533 22.6 13.1C20.92 14.8467 20.08 17.0267 20.08 19.64C20.08 22.3067 20.9467 24.4933 22.68 26.2C24.4133 27.9067 26.6267 28.76 29.32 28.76C31.72 28.76 33.6667 27.7333 35.16 25.68ZM74.48 25.68C75.1733 24.72 75.52 23.9467 75.52 23.36C75.52 23.2 75.4667 23.12 75.36 23.12C75.2267 23.12 75.0533 23.3733 74.84 23.88C74.3867 24.8933 73.7267 25.72 72.86 26.36C71.9933 27 71.0933 27.32 70.16 27.32C69.04 27.32 68.0933 26.9333 67.32 26.16C66.0133 24.8533 65.36 22.64 65.36 19.52C65.36 18.8533 65.4 18.04 65.48 17.08C66.4933 17.0267 67.3333 17 68 17C72.32 16.9733 74.7867 16.9333 75.4 16.88C75.3467 16.2133 75.2667 15.64 75.16 15.16C74.76 13.6133 73.8933 12.4267 72.56 11.6C71.36 10.8533 69.9067 10.48 68.2 10.48C65.6933 10.48 63.6 11.3533 61.92 13.1C60.24 14.8467 59.4 17.0267 59.4 19.64C59.4 22.3067 60.2667 24.4933 62 26.2C63.7333 27.9067 65.9467 28.76 68.64 28.76C71.04 28.76 72.9867 27.7333 74.48 25.68ZM129.8 25.68C130.493 24.72 130.84 23.9467 130.84 23.36C130.84 23.2 130.787 23.12 130.68 23.12C130.547 23.12 130.373 23.3733 130.16 23.88C129.707 24.8933 129.047 25.72 128.18 26.36C127.313 27 126.413 27.32 125.48 27.32C124.36 27.32 123.413 26.9333 122.64 26.16C121.333 24.8533 120.68 22.64 120.68 19.52C120.68 18.8533 120.72 18.04 120.8 17.08C121.813 17.0267 122.653 17 123.32 17C127.64 16.9733 130.107 16.9333 130.72 16.88C130.667 16.2133 130.587 15.64 130.48 15.16C130.08 13.6133 129.213 12.4267 127.88 11.6C126.68 10.8533 125.227 10.48 123.52 10.48C121.013 10.48 118.92 11.3533 117.24 13.1C115.56 14.8467 114.72 17.0267 114.72 19.64C114.72 22.3067 115.587 24.4933 117.32 26.2C119.053 27.9067 121.267 28.76 123.96 28.76C126.36 28.76 128.307 27.7333 129.8 25.68ZM170.72 27.32C171.173 27.2933 171.4 27.1733 171.4 26.96C171.4 26.7467 171.227 26.64 170.88 26.64C169.68 26.64 168.96 26.6133 168.72 26.56C168.373 26.48 168.173 26.3267 168.12 26.1C168.067 25.8733 168.04 25.1333 168.04 23.88L168.04 15.76C168.04 13.52 168.053 11.8933 168.08 10.88C165.36 10.9067 163.373 10.92 162.12 10.92C160.68 10.92 159.96 11 159.96 11.16C159.96 11.3733 160.147 11.48 160.52 11.48L161.64 11.48C162.253 11.48 162.587 11.7333 162.64 12.24C162.693 12.64 162.72 13.8133 162.72 15.76L162.72 22.64C162.72 23.84 162.7 24.5933 162.66 24.9C162.62 25.2067 162.48 25.5067 162.24 25.8C161.467 26.7867 160.64 27.28 159.76 27.28C158.987 27.28 158.42 26.9333 158.06 26.24C157.7 25.5467 157.52 23.8 157.52 21C157.52 21.1333 157.54 20.72 157.58 19.76C157.62 18.8 157.64 17.2933 157.64 15.24L157.64 10.92L156.88 10.92C155.92 10.92 155.193 10.9333 154.7 10.96C154.207 10.9867 153.933 11 153.88 11Q153.44 11 152.22 10.94C151.407 10.9 150.8 10.88 150.4 10.88L149.96 10.88C149.587 10.88 149.4 10.9867 149.4 11.2C149.4 11.3867 149.747 11.4933 150.44 11.52C151.24 11.5467 151.727 11.6267 151.9 11.76C152.073 11.8933 152.16 12.2533 152.16 12.84L152.16 18.04C152.133 19.2933 152.12 20.08 152.12 20.4L152.12 23.24C152.12 25.1067 152.44 26.3867 153.08 27.08C154.093 28.2 155.48 28.76 157.24 28.76C159.213 28.76 161.04 27.88 162.72 26.12C162.747 26.3067 162.76 26.52 162.76 26.76C162.76 27.08 162.747 27.3533 162.72 27.58C162.693 27.8067 162.68 28.1067 162.68 28.48C162.68 28.6933 162.733 28.8 162.84 28.8Q163.04 28.8 163.28 28.64C163.947 28.1867 164.747 27.8733 165.68 27.7C166.613 27.5267 168.293 27.4 170.72 27.32ZM31.16 16.4C31.1867 14.3467 31.04 12.92 30.72 12.12C30.4 11.32 29.84 10.92 29.04 10.92C27.4133 10.92 26.48 12.7466 26.24 16.4C26.8 16.3733 27.9733 16.36 29.76 16.36C30.2933 16.36 30.76 16.3733 31.16 16.4ZM70.48 16.4C70.5067 14.3467 70.36 12.92 70.04 12.12C69.72 11.32 69.16 10.92 68.36 10.92C66.7333 10.92 65.8 12.7466 65.56 16.4C66.12 16.3733 67.2933 16.36 69.08 16.36Q69.88 16.36 70.48 16.4ZM125.8 16.4C125.827 14.3467 125.68 12.92 125.36 12.12C125.04 11.32 124.48 10.92 123.68 10.92C122.053 10.92 121.12 12.7466 120.88 16.4C121.44 16.3733 122.613 16.36 124.4 16.36Q125.2 16.36 125.8 16.4ZM141.56 21.36L141.56 19.4C138.973 19.9067 137.68 21.3733 137.68 23.8C137.68 25.6667 138.32 26.6 139.6 26.6C140.32 26.6 140.827 26.2 141.12 25.4C141.413 24.6 141.56 23.2533 141.56 21.36Z" fill-rule="evenodd"/>
	</g>
	<defs>
		<clipPath id="clip_1">
			<rect x="-1140" y="-84" width="1440" height="1024" clip-rule="evenodd"/>
		</clipPath>
	</defs>
	<g clip-path="url(#clip_1)">
		<path fill="rgb(0,0,0)" stroke="none" transform="translate(136.881 39.6899)" d="M5.76 7.31L6.56 7.31L6.56 3.55L3.52 3.55L3.52 4.5L5.42 4.5C5.41333 4.8 5.36667 5.07333 5.28 5.32C5.19333 5.56667 5.065 5.775 4.895 5.945C4.725 6.115 4.51667 6.245 4.27 6.335C4.02333 6.425 3.74 6.46667 3.42 6.46C3.04 6.46 2.71167 6.38333 2.435 6.23C2.15833 6.07667 1.93333 5.87167 1.76 5.615C1.58667 5.35833 1.45833 5.06667 1.375 4.74C1.29167 4.41333 1.25 4.08 1.25 3.74C1.25 3.4 1.29167 3.06667 1.375 2.74C1.45833 2.41333 1.58667 2.12167 1.76 1.865C1.93333 1.60833 2.15833 1.40333 2.435 1.25C2.71167 1.09667 3.04 1.02 3.42 1.02C3.64667 1.02 3.86333 1.05 4.07 1.11C4.27667 1.17 4.46333 1.26 4.63 1.38C4.79667 1.5 4.935 1.64833 5.045 1.825C5.155 2.00167 5.22667 2.20667 5.26 2.44L6.48 2.44C6.43333 2.04 6.32 1.68667 6.14 1.38C5.96 1.07333 5.73333 0.818334 5.46 0.615C5.18667 0.411666 4.875 0.258334 4.525 0.155C4.175 0.0516661 3.80667 0 3.42 0C2.88666 0 2.40834 0.099999 1.985 0.3C1.56166 0.500001 1.20333 0.769998 0.91 1.11C0.616665 1.45 0.391667 1.84666 0.235 2.3C0.0783326 2.75334 0 3.23333 0 3.74C0 4.25334 0.0783326 4.73666 0.235 5.19C0.391667 5.64334 0.616665 6.04 0.91 6.38C1.20333 6.72 1.56166 6.98833 1.985 7.185C2.40834 7.38167 2.88666 7.48 3.42 7.48C3.85334 7.48 4.23666 7.40667 4.57 7.26C4.90334 7.11333 5.23667 6.85 5.57 6.47L5.76 7.31ZM20.09 0.17L16.62 0.17L16.62 7.31L19.9 7.31C20.36 7.31 20.7567 7.25833 21.09 7.155C21.4233 7.05167 21.6967 6.91167 21.91 6.735C22.1233 6.55833 22.28 6.34833 22.38 6.105C22.48 5.86167 22.53 5.6 22.53 5.32C22.53 4.83333 22.4167 4.42833 22.19 4.105C21.9633 3.78166 21.63 3.57333 21.19 3.48L21.19 3.46C21.5167 3.32 21.7683 3.12167 21.945 2.865C22.1217 2.60833 22.21 2.3 22.21 1.94C22.21 1.34666 22.0167 0.903335 21.63 0.61C21.2433 0.316665 20.73 0.17 20.09 0.17ZM24.88 0.17L23.63 0.17L23.63 7.31L24.88 7.31L24.88 4.09L28.13 4.09L28.13 7.31L29.38 7.31L29.38 0.17L28.13 0.17L28.13 3.01L24.88 3.01L24.88 0.17ZM17.87 3.16L19.91 3.16C20.21 3.16 20.46 3.075 20.66 2.905C20.86 2.735 20.96 2.49 20.96 2.17C20.96 1.81 20.87 1.55667 20.69 1.41C20.51 1.26333 20.25 1.19 19.91 1.19L17.87 1.19L17.87 3.16ZM8.84 2.14L7.76 2.14L7.76 7.31L8.9 7.31L8.9 4.24C8.9 4.02667 8.93167 3.83667 8.995 3.67C9.05833 3.50333 9.14167 3.36333 9.245 3.25C9.34833 3.13667 9.46833 3.05 9.605 2.99C9.74167 2.93 9.88333 2.9 10.03 2.9C10.3767 2.9 10.615 2.99167 10.745 3.175C10.875 3.35833 10.94 3.63 10.94 3.99L10.94 7.31L12.08 7.31L12.08 4.28C12.08 3.84 12.1667 3.5 12.34 3.26C12.5133 3.02 12.7933 2.9 13.18 2.9C13.4 2.9 13.5733 2.93333 13.7 3C13.8267 3.06667 13.9217 3.16167 13.985 3.285C14.0483 3.40833 14.0867 3.555 14.1 3.725C14.1133 3.895 14.12 4.08333 14.12 4.29L14.12 7.31L15.26 7.31L15.26 3.74C15.26 3.11333 15.1083 2.66667 14.805 2.4C14.5017 2.13333 14.0767 2 13.53 2C13.15 2 12.8333 2.07667 12.58 2.23C12.3267 2.38333 12.1033 2.59333 11.91 2.86C11.7967 2.56667 11.605 2.35 11.335 2.21C11.065 2.07 10.7733 2 10.46 2C10.2533 2 10.07 2.02167 9.91 2.065C9.75 2.10833 9.60833 2.16667 9.485 2.24C9.36167 2.31333 9.25 2.40333 9.15 2.51C9.05 2.61667 8.95667 2.73333 8.87 2.86L8.84 2.86L8.84 2.14ZM17.87 6.29L20.08 6.29C20.46 6.29 20.755 6.19167 20.965 5.995C21.175 5.79833 21.28 5.52 21.28 5.16C21.28 4.80666 21.175 4.535 20.965 4.345C20.755 4.155 20.46 4.06 20.08 4.06L17.87 4.06L17.87 6.29Z" fill-rule="evenodd"/>
	</g>

</svg>